<?xml version="1.0" encoding="UTF-8"?>
<!DOCTYPE svg PUBLIC "-//W3C//DTD SVG 1.1//EN" "http://www.w3.org/Graphics/SVG/1.1/DTD/svg11.dtd">
<!-- Creator: CorelDRAW 2018 (64-Bit) -->
<svg xmlns="http://www.w3.org/2000/svg" xml:space="preserve" width="53.83mm" height="34.6606mm" version="1.1" style="shape-rendering:geometricPrecision; text-rendering:geometricPrecision; image-rendering:optimizeQuality; fill-rule:evenodd; clip-rule:evenodd"
viewBox="0 0 1478.41 951.93"
 xmlns:xlink="http://www.w3.org/1999/xlink">
 <defs>
  <style type="text/css">
   <![CDATA[
    .fil0 {fill:#393185}
   ]]>
  </style>
 </defs>
 <g id="Слой_x0020_1">
  <metadata id="CorelCorpID_0Corel-Layer"/>
  <g id="_1468187622832">
   <path class="fil0" d="M1186.53 0c-510.45,50.03 -901.29,277.78 -1185.67,663.69l452.95 0 0 -239.8 411.78 0 0 -218 87.2 0 0 -77.51 205.89 0 0 70.24 95.67 0c-22.61,-66.21 -45.21,-132.41 -67.82,-198.62z"/>
   <polygon class="fil0" points="1478.41,748.47 1279.18,285.82 1278.58,726.67 "/>
   <path class="fil0" d="M0.02 806.91l-0.02 36.55 914.38 -2.42 0 25.43 -627.35 -2.42c0,14.13 0,28.26 0,42.39 351.91,-5.9 608.89,-0.4 663.57,42.17l4.6 3.33c82.13,-94.05 195.74,-134.14 323.1,-150.66l-1278.29 5.63z"/>
   <rect class="fil0" x="107.18" y="714.47" width="79.33" height="56.32"/>
   <rect class="fil0" x="244.34" y="712.96" width="79.33" height="56.32"/>
   <rect class="fil0" x="374.53" y="712.96" width="79.33" height="56.32"/>
   <rect class="fil0" x="563.63" y="459.43" width="79.33" height="56.32"/>
   <rect class="fil0" x="700.79" y="457.92" width="79.33" height="56.32"/>
   <rect class="fil0" x="830.98" y="457.92" width="79.33" height="56.32"/>
   <rect class="fil0" x="564.23" y="550.87" width="79.33" height="56.32"/>
   <rect class="fil0" x="701.39" y="549.36" width="79.33" height="56.32"/>
   <rect class="fil0" x="831.58" y="549.36" width="79.33" height="56.32"/>
   <rect class="fil0" x="973.29" y="455.5" width="79.33" height="56.32"/>
   <rect class="fil0" x="1103.48" y="455.5" width="79.33" height="56.32"/>
   <rect class="fil0" x="973.89" y="546.94" width="79.33" height="56.32"/>
   <rect class="fil0" x="1104.08" y="546.94" width="79.33" height="56.32"/>
   <rect class="fil0" x="972.09" y="264.14" width="79.33" height="56.32"/>
   <rect class="fil0" x="1102.28" y="264.14" width="79.33" height="56.32"/>
   <rect class="fil0" x="972.69" y="355.58" width="79.33" height="56.32"/>
   <rect class="fil0" x="1102.88" y="355.58" width="79.33" height="56.32"/>
   <rect class="fil0" x="832.18" y="672.89" width="79.33" height="56.32"/>
   <rect class="fil0" x="974.49" y="670.47" width="79.33" height="56.32"/>
   <rect class="fil0" x="1104.68" y="670.47" width="79.33" height="56.32"/>
   <rect class="fil0" x="701.41" y="675.01" width="79.33" height="128.64"/>
   <rect class="fil0" x="564.26" y="675.02" width="79.33" height="128.64"/>
  </g>
 </g>
</svg>
